<?xml version="1.0" encoding="UTF-8"?>
<svg version="1.1" xmlns="http://www.w3.org/2000/svg" width="32" height="32">
<path d="M0 0 C0.76183594 -0.01417969 1.52367188 -0.02835937 2.30859375 -0.04296875 C4.5625 0.1875 4.5625 0.1875 8.5625 2.1875 C7.9025 5.1575 7.2425 8.1275 6.5625 11.1875 C3.9225 11.1875 1.2825 11.1875 -1.4375 11.1875 C-2.63588209 13.51604463 -2.63588209 13.51604463 -3.4375 16.1875 C-2.7775 17.1775 -2.1175 18.1675 -1.4375 19.1875 C0.53997122 19.55047936 0.53997122 19.55047936 2.6875 19.375 C3.96625 19.313125 5.245 19.25125 6.5625 19.1875 C7.2225 22.1575 7.8825 25.1275 8.5625 28.1875 C3.65643128 30.64053436 -0.03982901 30.89413516 -5.4375 30.1875 C-9.29294798 28.19092873 -11.03555092 26.79042362 -13.4375 23.1875 C-15.63204681 22.60756301 -15.63204681 22.60756301 -18.0625 22.5 C-19.50625 22.396875 -20.95 22.29375 -22.4375 22.1875 C-22.4375 18.5575 -22.4375 14.9275 -22.4375 11.1875 C-19.7975 11.1875 -17.1575 11.1875 -14.4375 11.1875 C-14.210625 10.28 -13.98375 9.3725 -13.75 8.4375 C-12.23649036 4.68976185 -10.77491871 3.38531232 -7.4375 1.1875 C-4.66697819 0.26399273 -2.87061242 0.02420415 0 0 Z " fill="#F3B932" transform="translate(23.4375,0.8125)"/>
<path d="M0 0 C2.64 0 5.28 0 8 0 C8.33 1.65 8.66 3.3 9 5 C6.03 5 3.06 5 0 5 C0 3.35 0 1.7 0 0 Z " fill="#029900" transform="translate(1,18)"/>
<path d="M0 0 C2.64 0 5.28 0 8 0 C8 1.65 8 3.3 8 5 C5.36 5 2.72 5 0 5 C0 3.35 0 1.7 0 0 Z " fill="#039900" transform="translate(1,12)"/>
</svg>
